<?xml version="1.0" encoding="utf-8"?>
<!-- Generator: Adobe Illustrator 26.0.1, SVG Export Plug-In . SVG Version: 6.00 Build 0)  -->
<svg
		version="1.1"
		id="Layer_1"
		xmlns="http://www.w3.org/2000/svg"
		xmlns:xlink="http://www.w3.org/1999/xlink"
		x="0px"
		y="0px"
		viewBox="0 0 256 165"
		style="enable-background:new 0 0 256 165;"
		xml:space="preserve"
>
	<g transform="translate(1.4065934065934016 1.4065934065934016) scale(2.81 2.81)">
		<path d="M89,24.1h-9.3V10.3c0-0.3-0.1-0.5-0.3-0.7l-6.6-6.2c-0.4-0.4-1-0.4-1.4,0l-6.6,6.2c-0.2,0.2-0.3,0.5-0.3,0.7v13.8H52.6
			V10.3c0-0.3-0.1-0.5-0.3-0.7l-6.6-6.2c-0.4-0.4-1-0.4-1.4,0l-6.6,6.2c-0.2,0.2-0.3,0.5-0.3,0.7v13.8H25.4V10.3
			c0-0.3-0.1-0.5-0.3-0.7l-6.6-6.2c-0.4-0.4-1-0.4-1.4,0l-6.6,6.2c-0.2,0.2-0.3,0.5-0.3,0.7v13.8H1c-0.6,0-1,0.4-1,1v12.7
			c0,0.6,0.4,1,1,1h9.3v15.7c0,0.6,0.4,1,1,1h13.1c0.6,0,1-0.4,1-1V38.8h12.1v15.7c0,0.6,0.4,1,1,1h13.1c0.6,0,1-0.4,1-1V38.8h12.1
			v15.7c0,0.6,0.4,1,1,1h13.1c0.6,0,1-0.4,1-1V38.8H89c0.6,0,1-0.4,1-1V25.1C90,24.5,89.6,24.1,89,24.1z M66.6,10.7l5.6-5.2l5.6,5.2
			v13.4H66.6V10.7z M39.4,10.7L45,5.5l5.6,5.2v13.4H39.4V10.7z M12.3,10.7l5.6-5.2l5.6,5.2v13.4H12.3V10.7z M23.4,53.5H12.3V38.8
			h11.1C23.4,38.8,23.4,53.5,23.4,53.5z M50.6,53.5H39.4V38.8h11.1L50.6,53.5L50.6,53.5z M77.7,53.5H66.6V38.8h11.1V53.5z M88,36.8
			h-9.3H65.6H51.6H38.4H24.4H11.3H2V26.1h86V36.8z"/>
	</g>
</svg>
