<?xml version="1.0" encoding="utf-8"?>
<!-- Generator: Adobe Illustrator 26.0.1, SVG Export Plug-In . SVG Version: 6.00 Build 0)  -->
<svg
		version="1.1"
		id="Layer_1"
		xmlns="http://www.w3.org/2000/svg"
		xmlns:xlink="http://www.w3.org/1999/xlink"
		x="0px"
		y="0px"
		viewBox="0 0 256 229"
		style="enable-background:new 0 0 256 229;"
		xml:space="preserve"
>
	<g transform="translate(1.4065934065934016 1.4065934065934016) scale(2.81 2.81)">
		<path d="M73.7,62.6h-46c-3.6,0-6.4-2.6-6.7-6.1c-0.2-2.4,0.8-4.6,2.6-5.9l-7.2-32.3c-0.2-0.9,0-1.8,0.6-2.5s1.4-1.1,2.3-1.1H87
			c1,0,1.9,0.5,2.4,1.3c0.6,0.8,0.7,1.8,0.4,2.7L82,40.9c-1.1,3.1-3.8,5.4-7.1,6l-47.4,8.3c0,0,0,0,0,0c-0.2,0-0.6,0.1-0.6,0.8
			c0.1,0.6,0.5,0.6,0.7,0.6h46c1.7,0,3,1.3,3,3S75.4,62.6,73.7,62.6z"/>
		<circle cx="28.2" cy="73" r="6.5"/>
		<circle cx="68.3" cy="73" r="6.5"/>
		<path d="M19.3,20.6c-1.4,0-2.6-1-2.9-2.3L15,12.1c-0.6-2.5-2.7-4.2-5.3-4.2H3c-1.7,0-3-1.3-3-3s1.3-3,3-3h6.7
			c5.4,0,9.9,3.7,11.1,8.9l1.4,6.2c0.4,1.6-0.7,3.2-2.3,3.6C19.7,20.5,19.5,20.6,19.3,20.6z"/>
	</g>
</svg>
