<?xml version="1.0" encoding="utf-8"?>
<!-- Generator: Adobe Illustrator 26.0.1, SVG Export Plug-In . SVG Version: 6.00 Build 0)  -->
<svg
		version="1.1"
		id="Layer_1"
		xmlns="http://www.w3.org/2000/svg"
		xmlns:xlink="http://www.w3.org/1999/xlink"
		x="0px"
		y="0px"
		viewBox="0 0 256 256"
		style="enable-background:new 0 0 256 256;"
		xml:space="preserve"
>
	<g transform="translate(1.4065934065934016 1.4065934065934016) scale(2.81 2.81)">
	<path d="M37.2,80.6c-0.6,0-1-0.4-1-1V41.4c0-0.6,0.4-1,1-1s1,0.4,1,1v38.2C38.2,80.2,37.7,80.6,37.2,80.6z"/>
	<path d="M49.3,80.6c-0.6,0-1-0.4-1-1V50.9c0-0.6,0.4-1,1-1s1,0.4,1,1v28.7C50.3,80.2,49.8,80.6,49.3,80.6z"/>
	<path d="M25.1,80.6c-0.6,0-1-0.4-1-1V48.2c0-0.6,0.4-1,1-1s1,0.4,1,1v31.4C26.1,80.2,25.6,80.6,25.1,80.6z"/>
	<path d="M73.3,29.6H61.5v-2c1.7-2.2,2.7-5,2.7-8c0-7.3-5.9-13.2-13.2-13.2c-1.8,0-3.4,0.3-5,1C44.1,2.9,39.8,0,34.9,0
		c-4.8,0-9,2.7-11,7c-0.2,0-0.4,0-0.6,0C15.2,7,8.7,13.6,8.7,21.6c0,0,0,0.1,0,0.1c0,0,0,0,0,0.1v29.1c0,2.5,1.8,4.5,4.2,4.9v29.4
		c0,2.7,2.2,4.9,4.9,4.9h39c2.7,0,4.9-2.2,4.9-4.9v-14h11.8c4.4,0,8-3.7,8-8.2V37.8C81.3,33.2,77.7,29.6,73.3,29.6z M61.5,37.6h9.6
		c1.1,0,2.1,0.9,2.1,2.1V61c0,1.1-0.9,2.1-2.1,2.1h-9.6V37.6z M10.7,50.9v-29c0,0,0-0.1,0-0.1l0-0.1C10.7,14.7,16.3,9,23.3,9
		c0.4,0,0.8,0,1.2,0.1c0.4,0,0.9-0.2,1-0.6C27,4.5,30.7,2,34.9,2c4.4,0,8.3,2.8,9.6,7.1c0.1,0.3,0.3,0.5,0.6,0.6
		c0.3,0.1,0.6,0.1,0.8,0c1.6-0.8,3.3-1.3,5.2-1.3c6.2,0,11.2,5,11.2,11.2c0,5.9-4.6,10.8-10.5,11.2c-0.5,0-0.9,0.5-0.9,1v6.9
		c0,1.6-1.3,2.9-2.9,2.9c-1.6,0-2.9-1.3-2.9-2.9v-5.3c0-0.3-0.2-0.7-0.5-0.8c-0.3-0.2-0.6-0.2-0.9-0.1c-1,0.4-2.1,0.7-3.1,0.7
		c-2.4,0-4.7-1.1-6.2-3c-0.2-0.2-0.5-0.4-0.8-0.4c-0.3,0-0.6,0.1-0.8,0.3c-1.9,2.1-4.5,3.5-7.4,4c-0.5,0.1-0.8,0.5-0.8,1v2.5
		c0,1.6-1.3,2.9-2.9,2.9s-2.9-1.3-2.9-2.9c0-0.6-0.4-1-1-1s-1,0.4-1,1v13.3c0,1.6-1.3,2.9-2.9,2.9S10.7,52.5,10.7,50.9z M56.7,88
		h-39c-1.6,0-2.9-1.3-2.9-2.9V55.6c2.1-0.5,3.7-2.5,3.7-4.8v-9.3c0.8,0.6,1.8,1,2.9,1c2.7,0,4.9-2.2,4.9-4.9v-1.7
		c2.6-0.6,5-1.8,6.9-3.7c1.9,1.9,4.4,2.9,7,2.9c0.9,0,1.7-0.1,2.5-0.3v3.9c0,2.7,2.2,4.9,4.9,4.9s4.9-2.2,4.9-4.9v-6
		c2.6-0.3,4.9-1.4,6.8-3v55.5C59.5,86.7,58.3,88,56.7,88z M79.3,62.9c0,3.4-2.7,6.2-6,6.2H61.5v-4h9.6c2.2,0,4.1-1.8,4.1-4.1V39.7
		c0-2.2-1.8-4.1-4.1-4.1h-9.6v-4h11.8c3.3,0,6,2.8,6,6.2L79.3,62.9L79.3,62.9z"/>
</g>
</svg>
