<?xml version="1.0" encoding="utf-8"?>
<!-- Generator: Adobe Illustrator 26.0.1, SVG Export Plug-In . SVG Version: 6.00 Build 0)  -->
<svg
		version="1.1"
		id="Layer_1"
		xmlns="http://www.w3.org/2000/svg"
		xmlns:xlink="http://www.w3.org/1999/xlink"
		x="0px"
		y="0px"
		viewBox="0 0 256 219"
		style="enable-background:new 0 0 256 219;"
		xml:space="preserve"
>
	<g transform="translate(1.4065934065934016 1.4065934065934016) scale(2.81 2.81)">
		<path d="M45,26c0.6,0,1-0.4,1-1v-1.5c0-0.6-0.4-1-1-1s-1,0.4-1,1V25C44,25.6,44.4,26,45,26z"/>
		<path d="M18.1,26c0.6,0,1-0.4,1-1v-1.5c0-0.6-0.4-1-1-1s-1,0.4-1,1V25C17.1,25.6,17.5,26,18.1,26z"/>
		<path d="M71.9,26c0.6,0,1-0.4,1-1v-1.5c0-0.6-0.4-1-1-1s-1,0.4-1,1V25C70.9,25.6,71.4,26,71.9,26z"/>
		<path d="M31.5,17.9c0.6,0,1-0.4,1-1v-1.5c0-0.6-0.4-1-1-1s-1,0.4-1,1v1.5C30.5,17.5,31,17.9,31.5,17.9z"/>
		<path d="M58.5,17.9c0.6,0,1-0.4,1-1v-1.5c0-0.6-0.4-1-1-1s-1,0.4-1,1v1.5C57.5,17.5,57.9,17.9,58.5,17.9z"/>
		<path d="M90,37.4c0-2.7-2-5-4.5-5.4C84.9,11.5,64.2,2.2,45,2.2S5.1,11.5,4.5,32C2,32.4,0,34.7,0,37.4c0,2.7,2,4.9,4.5,5.4v13.4
			c0,0.1,0,0.2,0.1,0.4c0,0.1-0.1,0.2-0.1,0.4c0,10.4,8.4,18.8,18.8,18.8h43.4c10.4,0,18.8-8.4,18.8-18.8c0-0.1,0-0.2-0.1-0.4
			c0-0.1,0.1-0.2,0.1-0.4V42.8C88,42.4,90,40.1,90,37.4z M45,4.2c18.2,0,37.8,8.7,38.4,27.7H6.6C7.2,12.9,26.8,4.2,45,4.2z M11,42.9
			c3.8,0,7.4,1.5,10.1,4.2c3.1,3.1,7.2,4.7,11.5,4.7h1.8c4.3,0,8.4-1.7,11.5-4.7c2.7-2.7,6.3-4.2,10.1-4.2h27.5v5.4
			c-3.3,2.2-6.4,2.1-9.7-0.3c-4.1-3-8.3-3-12.5,0c-3.4,2.5-6.7,2.5-10.1,0c-0.4-0.3-1.1-0.2-1.4,0.2c-0.3,0.4-0.2,1.1,0.2,1.4
			c2.1,1.5,4.1,2.3,6.2,2.3c2.1,0,4.2-0.8,6.2-2.3c3.4-2.5,6.7-2.5,10.1,0c3.6,2.6,7.3,2.9,10.9,1v5.2h-77v-5.2
			c1.5,0.8,3.1,1.2,4.6,1.2c2.1,0,4.2-0.8,6.2-2.3c0.4-0.3,0.5-0.9,0.2-1.4c-0.3-0.4-0.9-0.5-1.4-0.2c-3.3,2.4-6.4,2.5-9.7,0.3v-5.4
			L11,42.9L11,42.9z M66.7,73.7H23.3c-8.9,0-16.2-7-16.7-15.8h76.9C82.9,66.7,75.6,73.7,66.7,73.7z M84.5,40.9H56
			c-4.3,0-8.4,1.7-11.5,4.7c-2.7,2.7-6.3,4.2-10.1,4.2h-1.8c-3.8,0-7.4-1.5-10.1-4.2c-3.1-3.1-7.2-4.7-11.5-4.7H5.5
			c-1.9,0-3.5-1.6-3.5-3.5s1.6-3.5,3.5-3.5h79c1.9,0,3.5,1.6,3.5,3.5S86.4,40.9,84.5,40.9z"/>
	</g>
</svg>
