<?xml version="1.0" encoding="utf-8"?>
<!-- Generator: Adobe Illustrator 26.0.1, SVG Export Plug-In . SVG Version: 6.00 Build 0)  -->
<svg
		version="1.1"
		id="Layer_1"
		xmlns="http://www.w3.org/2000/svg"
		xmlns:xlink="http://www.w3.org/1999/xlink"
		x="0px"
		y="0px"
		viewBox="0 0 256 256"
		style="enable-background:new 0 0 256 256;"
		xml:space="preserve"
>
	<g transform="translate(1.4065934065934016 1.4065934065934016) scale(2.81 2.81)">
		<path d="M45,31.8c-7.4,0-13.5,6.1-13.5,13.5S37.6,58.8,45,58.8s13.5-6.1,13.5-13.5S52.4,31.8,45,31.8z"/>
		<path d="M63.7,0H26.3C11.8,0,0,11.8,0,26.3v37.4C0,78.2,11.8,90,26.3,90h37.4C78.2,90,90,78.2,90,63.7V26.3C90,11.8,78.2,0,63.7,0z
			 M45,68.7c-12.9,0-23.4-10.5-23.4-23.4c0-12.9,10.5-23.4,23.4-23.4c12.9,0,23.4,10.5,23.4,23.4C68.4,58.2,57.9,68.7,45,68.7z
			 M68.9,21.9c-2.8,0-5-2.2-5-5s2.2-5,5-5s5,2.2,5,5S71.7,21.9,68.9,21.9z"/>
</g>
</svg>
