<?xml version="1.0" encoding="utf-8"?>
<!-- Generator: Adobe Illustrator 26.0.1, SVG Export Plug-In . SVG Version: 6.00 Build 0)  -->
<svg
		version="1.1"
		id="Layer_1"
		xmlns="http://www.w3.org/2000/svg"
		xmlns:xlink="http://www.w3.org/1999/xlink"
		x="0px"
		y="0px"
		viewBox="0 0 256 256"
		style="enable-background:new 0 0 256 256;"
		xml:space="preserve"
>
	<g transform="translate(1.4065934065934016 1.4065934065934016) scale(2.81 2.81)">
		<path d="M53.3,46.5c-0.2,0-0.5-0.1-0.7-0.3c-0.4-0.4-0.4-1-0.1-1.4l1.6-1.8c0.2-0.2,0.4-0.3,0.7-0.3l8.5-0.2
			c3.6-0.1,7.1-1.7,9.5-4.3l15.3-20.1c0.3-0.4,1-0.5,1.4-0.2c0.4,0.3,0.5,1,0.2,1.4L74.4,39.5c-2.9,3.1-6.8,5-11,5.1l-8.1,0.2
			L54,46.2C53.8,46.4,53.5,46.5,53.3,46.5z"/>
		<path d="M9.7,90c-2.6,0-5-1-6.9-2.8C1,85.3-0.1,82.8,0,80.1c0.1-2.7,1.2-5.1,3.2-6.9L23,54.9c0.4-0.4,1-0.3,1.4,0.1s0.3,1-0.1,1.4
			L4.5,74.6C2.9,76,2.1,78,2,80.1c0,2.1,0.8,4.1,2.3,5.6C5.8,87.2,7.7,88,9.9,88c2.1,0,4.1-0.9,5.5-2.5L33.2,66
			c0.4-0.4,1-0.4,1.4-0.1c0.4,0.4,0.4,1,0.1,1.4L16.9,86.8c-1.8,2-4.3,3.1-6.9,3.2C9.8,90,9.8,90,9.7,90z"/>
		<path d="M44.1,38c-0.3,0-0.5-0.1-0.7-0.3c-0.4-0.4-0.3-1,0.1-1.4l1.8-1.6l0.2-8.1c0.1-4.2,1.9-8.2,5-11L70.6,0.2
			C71-0.1,71.7,0,72,0.4c0.3,0.4,0.3,1.1-0.2,1.4L51.7,17.2c-2.6,2.4-4.2,5.9-4.3,9.5l-0.2,8.5c0,0.3-0.1,0.5-0.3,0.7l-2.1,1.9
			C44.6,37.9,44.4,38,44.1,38z"/>
		<path d="M56.6,27.1c-0.3,0-0.5-0.1-0.7-0.3c-0.4-0.4-0.3-1,0.1-1.4L77.3,6c0.4-0.4,1-0.3,1.4,0.1c0.4,0.4,0.3,1-0.1,1.4L57.3,26.8
			C57.1,27,56.8,27.1,56.6,27.1z"/>
		<path d="M63.9,34.4c-0.2,0-0.5-0.1-0.7-0.3c-0.4-0.4-0.4-1-0.1-1.4l19.3-21.4c0.4-0.4,1-0.4,1.4-0.1c0.4,0.4,0.4,1,0.1,1.4
			L64.7,34.1C64.5,34.3,64.2,34.4,63.9,34.4z"/>
		<path d="M72.4,90c-0.1,0-0.1,0-0.2,0c-2.7-0.1-5.1-1.2-6.9-3.2L42.7,61.1l-1.6,1.6c-1.3,1.3-3.1,1.9-4.9,1.7
			c-1.8-0.2-3.4-1.2-4.4-2.7l-30.3-48c-1.3-2.1-1-4.7,0.7-6.4c1-1,2.3-1.5,3.7-1.5s2.7,0.5,3.7,1.5l42.8,42.8l26.5,23.2
			c2,1.8,3.1,4.3,3.2,7s-0.9,5.2-2.8,7.1C77.4,89,75,90,72.4,90z M42.7,59.1C42.7,59.1,42.7,59.1,42.7,59.1c0.6,0,1.1,0.3,1.5,0.7
			l22.5,25.8c1.4,1.6,3.4,2.4,5.5,2.5c2.1,0,4.1-0.8,5.6-2.3c1.5-1.5,2.3-3.5,2.3-5.6c0-2.1-0.9-4.1-2.5-5.5L51,51.4c0,0,0,0,0,0
			L8.2,8.6C7,7.4,4.9,7.4,3.7,8.6c-1.1,1.1-1.2,2.7-0.4,4l30.3,48c0.6,1,1.7,1.7,2.9,1.8c1.2,0.1,2.4-0.3,3.2-1.1l1.6-1.6
			C41.6,59.3,42.1,59.1,42.7,59.1z"/>
	</g>
</svg>
