<?xml version="1.0" encoding="utf-8"?>
<!-- Generator: Adobe Illustrator 26.0.1, SVG Export Plug-In . SVG Version: 6.00 Build 0)  -->
<svg
		version="1.1"
		id="Layer_1"
		xmlns="http://www.w3.org/2000/svg"
		xmlns:xlink="http://www.w3.org/1999/xlink"
		x="0px"
		y="0px"
		viewBox="0 0 256 256"
		style="enable-background:new 0 0 256 256;"
		xml:space="preserve"
>
	<g transform="translate(1.4065934065934016 1.4065934065934016) scale(2.81 2.81)">
		<path d="M81,45.3H9c-2.3,0-4.2-1.9-4.2-4.2S6.7,37,9,37h72c2.3,0,4.2,1.9,4.2,4.2S83.3,45.3,81,45.3z M9,39c-1.2,0-2.2,1-2.2,2.2
			s1,2.2,2.2,2.2h72c1.2,0,2.2-1,2.2-2.2S82.2,39,81,39H9z"/>
		<path d="M78,38.7c-0.6,0-1-0.4-1-1c0-17.6-14.3-32-32-32s-32,14.3-32,32c0,0.6-0.4,1-1,1s-1-0.4-1-1c0-18.7,15.2-34,34-34
			c18.7,0,34,15.2,34,34C79,38.2,78.5,38.7,78,38.7z"/>
		<path d="M18.4,32.5c-0.1,0-0.1,0-0.2,0c-0.5-0.1-0.9-0.7-0.7-1.2c2.2-9.4,8.9-17,18-20.2c0.5-0.2,1.1,0.1,1.3,0.6
			c0.2,0.5-0.1,1.1-0.6,1.3c-8.5,3-14.7,10.1-16.7,18.8C19.3,32.2,18.9,32.5,18.4,32.5z"/>
		<path d="M48.7,5.9c-0.6,0-1-0.4-1-1C47.7,3.4,46.4,2,45,2s-2.7,1.4-2.7,2.9c0,0.6-0.4,1-1,1s-1-0.4-1-1C40.3,2.3,42.4,0,45,0
			s4.7,2.3,4.7,4.9C49.7,5.5,49.3,5.9,48.7,5.9z"/>
		<path d="M29.2,81C29.2,81,29.2,81,29.2,81c-0.4,0-0.6-0.2-0.8-0.4l-6.6-7.9c-0.2-0.2-0.3-0.5-0.2-0.7c0-0.3,0.2-0.5,0.4-0.7
			l1.9-1.5c0.2-0.2,0.3-0.4,0.4-0.7c0.7-4.2,1.7-7.6,4.7-11.6c2-2.6,3.5-6.2,4.3-10.9c0.3-1.5,1.6-2.6,3.1-2.6c0.8,0,1.7,0.3,2.3,0.9
			c0.6,0.6,1,1.4,1,2.3c0,4.6-0.5,8.3-1.5,11.3c5.2-1,11.4-8.2,15.9-13.6c1.1-1.3,3.1-1.6,4.6-0.7c1.5,1,2,2.9,1.2,4.5l-8.3,16
			C50.9,66,50,67.1,48.9,68c0,0,0,0,0,0l-3.6,3c-0.7,0.6-1.4,1-2.1,1.4l-7.7,3.9c-0.8,0.4-1.6,0.9-2.3,1.5l-3.4,2.8
			C29.7,80.9,29.5,81,29.2,81z M24.1,72.2l5.3,6.4l2.6-2.2c0.8-0.7,1.7-1.3,2.7-1.7l7.7-3.9c0.6-0.3,1.2-0.7,1.7-1.2l3.6-3
			c0.9-0.8,1.6-1.7,2.2-2.8l8.3-16c0.3-0.7,0.1-1.5-0.5-1.9c-0.6-0.4-1.5-0.3-2,0.3c-5.3,6.2-12.5,14.7-19,14.4
			c-0.3,0-0.6-0.2-0.8-0.5c-0.2-0.3-0.2-0.6-0.1-0.9c1.3-2.9,1.9-6.9,1.9-12c0-0.3-0.1-0.6-0.4-0.9c-0.2-0.2-0.6-0.4-0.9-0.4
			c-0.6,0-1.1,0.4-1.2,1c-0.9,5-2.5,8.9-4.7,11.8c-2.8,3.7-3.7,6.7-4.3,10.7c-0.1,0.8-0.5,1.5-1.1,1.9L24.1,72.2z M48.3,67.3
			L48.3,67.3L48.3,67.3z"/>
		<path d="M24.8,90c-0.3,0-0.6-0.1-0.8-0.4L12.7,76c-0.2-0.2-0.3-0.5-0.2-0.7c0-0.3,0.2-0.5,0.4-0.7l7-5.8c0.4-0.4,1.1-0.3,1.4,0.1
			l11.3,13.7c0.2,0.2,0.3,0.5,0.2,0.7c0,0.3-0.2,0.5-0.4,0.7l-7,5.8C25.3,89.9,25.1,90,24.8,90z M14.9,75.5l10,12.1l5.5-4.5l-10-12.1
			L14.9,75.5z"/>
		<path d="M25.8,84c-0.3,0-0.6-0.1-0.8-0.4l-0.7-0.9c-0.4-0.4-0.3-1.1,0.1-1.4c0.4-0.4,1.1-0.3,1.4,0.1l0.7,0.9
			c0.4,0.4,0.3,1.1-0.1,1.4C26.2,83.9,26,84,25.8,84z"/>
		<path d="M45,31.3c-0.2,0-0.3,0-0.5-0.1c-1.5-0.9-3.9-2.9-4.9-4.2c-2.2-2.9-2.6-6.2-1-8.1c0.8-0.9,1.9-1.4,3.2-1.5
			c1.1,0,2.3,0.3,3.2,1c1-0.7,2.1-1.1,3.2-1c1.2,0,2.4,0.6,3.2,1.5c1.7,1.9,1.3,5.2-1,8.1c-1,1.3-3.4,3.3-4.9,4.2
			C45.3,31.2,45.2,31.3,45,31.3z M41.9,19.4C41.9,19.4,41.9,19.4,41.9,19.4c-0.8,0-1.4,0.3-1.8,0.8c-1,1.1-0.5,3.5,1.1,5.5
			c0.7,1,2.5,2.5,3.9,3.4c1.3-0.9,3.1-2.4,3.9-3.4c1.6-2,2-4.4,1.1-5.5l0,0c-0.4-0.5-1.1-0.8-1.7-0.8c-0.9,0-1.7,0.4-2.5,1.1
			c-0.4,0.4-1,0.4-1.4,0C43.6,19.8,42.8,19.4,41.9,19.4z"/>
	</g>
</svg>
