<?xml version="1.0" encoding="utf-8"?>
<!-- Generator: Adobe Illustrator 26.0.1, SVG Export Plug-In . SVG Version: 6.00 Build 0)  -->
<svg
		version="1.1"
		id="Layer_1"
		xmlns="http://www.w3.org/2000/svg"
		xmlns:xlink="http://www.w3.org/1999/xlink"
		x="0px"
		y="0px"
		viewBox="0 0 256 256"
		style="enable-background:new 0 0 256 256;"
		xml:space="preserve"
>
	<g transform="translate(1.4065934065934016 1.4065934065934016) scale(2.81 2.81)">
		<path d="M45-0.2C20.1-0.2,0,20,0,45c0,22.8,16.8,41.7,38.6,44.8v-31H28V46.3h10.6v-9.2c0-10.7,6.4-16.5,15.8-16.5
			c4.5,0,8.4,0.3,9.5,0.5v11.1l-6.5,0c-5.1,0-6.1,2.5-6.1,6.1v7.9h12.2L62,58.8H51.4v31C73.2,86.7,90,67.8,90,45
			C90,20,69.9-0.2,45-0.2z"/>
	</g>
</svg>
